# xmcd CD database file
#
# Track frame offsets:
#	150
#	13212
#	27532
#	41220
#	52975
#	67685
#	78080
#	90907
#	103827
#	118257
#	130902
#	145430
#	158620
#	169732
#	179747
#	192165
#	204990
#	215662
#	230262
#	262965
#
# Disc length: 3665 seconds
#
# Revision: 2
# Processed by: cddbd v1.5.2PL0 Copyright (c) Steve Scherf et al.
# Submitted via: CDex 1.51
#
DISCID=160e4f14
DTITLE=Various Artist - The Best Of Chess Blues
DYEAR=1900
DGENRE=Blues
TTITLE0=Hoochie Coochie Man - Muddy Waters
TTITLE1=Smokestack Lightnin' - Howlin' Wolf
TTITLE2=Can't Hold Out Much Longer - Little Walter
TTITLE3=Bing It On Home - Sonny Boy Williamson
TTITLE4=Anna Lee - Robert Nighthawk
TTITLE5=Talk To Me Baby (I Can't Hold Out) - Elmore James
TTITLE6=Rocket 88 - Jackie Brenston and His Delta Cats
TTITLE7=When The Lights Go Out - Jimmy Witherspoon
TTITLE8=I Don't Know Why - Willie Mabon and His Combo
TTITLE9=The Walk - Jimmy McCraklin
TTITLE10=Reconsider Baby - Lowell Fulson
TTITLE11=It's My Soul - Clifton Chenier
TTITLE12=Jock-A-Mo - Sugar Boy Crawford
TTITLE13=Flat Foot Sam - T.V. Slim
TTITLE14=Mad Man Blues - John Lee Hooker
TTITLE15=That's All Right - Jimmy Rogers
TTITLE16=Mama Talk To Your Daughter - J.B. Lenoir
TTITLE17=So Many Roads - Otis Rush
TTITLE18=Stone Crazy - Buddy Guy
TTITLE19=Grits Ain't Groceries - Little Milton
EXTD=
EXTT0=
EXTT1=
EXTT2=
EXTT3=
EXTT4=
EXTT5=
EXTT6=
EXTT7=
EXTT8=
EXTT9=
EXTT10=
EXTT11=
EXTT12=
EXTT13=
EXTT14=
EXTT15=
EXTT16=
EXTT17=
EXTT18=
EXTT19=
PLAYORDER=
